<svg width="352" height="137" viewBox="0 0 352 137" fill="none" xmlns="http://www.w3.org/2000/svg">
<rect width="352" height="137" rx="6" fill="#015F43"/>
<path d="M37.5234 30.625V42H36.0391V30.625H37.5234ZM41.1797 30.625V31.8594H32.3906V30.625H41.1797ZM41.4844 37.8672V37.6875C41.4844 37.0781 41.5729 36.513 41.75 35.9922C41.9271 35.4661 42.1823 35.0104 42.5156 34.625C42.849 34.2344 43.2526 33.9323 43.7266 33.7188C44.2005 33.5 44.7318 33.3906 45.3203 33.3906C45.9141 33.3906 46.4479 33.5 46.9219 33.7188C47.401 33.9323 47.8073 34.2344 48.1406 34.625C48.4792 35.0104 48.737 35.4661 48.9141 35.9922C49.0911 36.513 49.1797 37.0781 49.1797 37.6875V37.8672C49.1797 38.4766 49.0911 39.0417 48.9141 39.5625C48.737 40.0833 48.4792 40.5391 48.1406 40.9297C47.8073 41.3151 47.4036 41.6172 46.9297 41.8359C46.4609 42.0495 45.9297 42.1562 45.3359 42.1562C44.7422 42.1562 44.2083 42.0495 43.7344 41.8359C43.2604 41.6172 42.8542 41.3151 42.5156 40.9297C42.1823 40.5391 41.9271 40.0833 41.75 39.5625C41.5729 39.0417 41.4844 38.4766 41.4844 37.8672ZM42.9297 37.6875V37.8672C42.9297 38.2891 42.9792 38.6875 43.0781 39.0625C43.1771 39.4323 43.3255 39.7604 43.5234 40.0469C43.7266 40.3333 43.9792 40.5599 44.2812 40.7266C44.5833 40.888 44.9349 40.9688 45.3359 40.9688C45.7318 40.9688 46.0781 40.888 46.375 40.7266C46.6771 40.5599 46.9271 40.3333 47.125 40.0469C47.3229 39.7604 47.4714 39.4323 47.5703 39.0625C47.6745 38.6875 47.7266 38.2891 47.7266 37.8672V37.6875C47.7266 37.2708 47.6745 36.8776 47.5703 36.5078C47.4714 36.1328 47.3203 35.8021 47.1172 35.5156C46.9193 35.224 46.6693 34.9948 46.3672 34.8281C46.0703 34.6615 45.7214 34.5781 45.3203 34.5781C44.9245 34.5781 44.5755 34.6615 44.2734 34.8281C43.9766 34.9948 43.7266 35.224 43.5234 35.5156C43.3255 35.8021 43.1771 36.1328 43.0781 36.5078C42.9792 36.8776 42.9297 37.2708 42.9297 37.6875ZM54.5312 33.5469V34.6562H49.9609V33.5469H54.5312ZM51.5078 31.4922H52.9531V39.9062C52.9531 40.1927 52.9974 40.4089 53.0859 40.5547C53.1745 40.7005 53.2891 40.7969 53.4297 40.8438C53.5703 40.8906 53.7214 40.9141 53.8828 40.9141C54.0026 40.9141 54.1276 40.9036 54.2578 40.8828C54.3932 40.8568 54.4948 40.8359 54.5625 40.8203L54.5703 42C54.4557 42.0365 54.3047 42.0703 54.1172 42.1016C53.9349 42.138 53.7135 42.1562 53.4531 42.1562C53.099 42.1562 52.7734 42.0859 52.4766 41.9453C52.1797 41.8047 51.9427 41.5703 51.7656 41.2422C51.5938 40.9089 51.5078 40.4609 51.5078 39.8984V31.4922ZM61.2109 40.5547V36.2031C61.2109 35.8698 61.1432 35.5807 61.0078 35.3359C60.8776 35.0859 60.6797 34.8932 60.4141 34.7578C60.1484 34.6224 59.8203 34.5547 59.4297 34.5547C59.0651 34.5547 58.7448 34.6172 58.4688 34.7422C58.1979 34.8672 57.9844 35.0312 57.8281 35.2344C57.6771 35.4375 57.6016 35.6562 57.6016 35.8906H56.1562C56.1562 35.5885 56.2344 35.2891 56.3906 34.9922C56.5469 34.6953 56.7708 34.4271 57.0625 34.1875C57.3594 33.9427 57.7135 33.75 58.125 33.6094C58.5417 33.4635 59.0052 33.3906 59.5156 33.3906C60.1302 33.3906 60.6719 33.4948 61.1406 33.7031C61.6146 33.9115 61.9844 34.2266 62.25 34.6484C62.5208 35.0651 62.6562 35.5885 62.6562 36.2188V40.1562C62.6562 40.4375 62.6797 40.737 62.7266 41.0547C62.7786 41.3724 62.8542 41.6458 62.9531 41.875V42H61.4453C61.3724 41.8333 61.3151 41.612 61.2734 41.3359C61.2318 41.0547 61.2109 40.7943 61.2109 40.5547ZM61.4609 36.875L61.4766 37.8906H60.0156C59.6042 37.8906 59.237 37.9245 58.9141 37.9922C58.5911 38.0547 58.3203 38.151 58.1016 38.2812C57.8828 38.4115 57.7161 38.5755 57.6016 38.7734C57.487 38.9661 57.4297 39.1927 57.4297 39.4531C57.4297 39.7188 57.4896 39.9609 57.6094 40.1797C57.7292 40.3984 57.9089 40.5729 58.1484 40.7031C58.3932 40.8281 58.6927 40.8906 59.0469 40.8906C59.4896 40.8906 59.8802 40.7969 60.2188 40.6094C60.5573 40.4219 60.8255 40.1927 61.0234 39.9219C61.2266 39.651 61.3359 39.388 61.3516 39.1328L61.9688 39.8281C61.9323 40.0469 61.8333 40.2891 61.6719 40.5547C61.5104 40.8203 61.2943 41.0755 61.0234 41.3203C60.7578 41.5599 60.4401 41.7604 60.0703 41.9219C59.7057 42.0781 59.2943 42.1562 58.8359 42.1562C58.263 42.1562 57.7604 42.0443 57.3281 41.8203C56.901 41.5964 56.5677 41.2969 56.3281 40.9219C56.0938 40.5417 55.9766 40.1172 55.9766 39.6484C55.9766 39.1953 56.0651 38.7969 56.2422 38.4531C56.4193 38.1042 56.6745 37.8151 57.0078 37.5859C57.3411 37.3516 57.7422 37.1745 58.2109 37.0547C58.6797 36.9349 59.2031 36.875 59.7812 36.875H61.4609ZM66.5 30V42H65.0469V30H66.5Z" fill="#C4C4CC"/>
<path fill-rule="evenodd" clip-rule="evenodd" d="M312 26C312.552 26 313 26.4477 313 27L313 53C313 53.5523 312.552 54 312 54C311.448 54 311 53.5523 311 53L311 27C311 26.4477 311.448 26 312 26Z" fill="white"/>
<path fill-rule="evenodd" clip-rule="evenodd" d="M305.257 30.7574C306.383 29.6321 307.909 29 309.5 29H314C314.788 29 315.568 29.1552 316.296 29.4567C317.024 29.7583 317.685 30.2002 318.243 30.7574C318.8 31.3145 319.242 31.9759 319.543 32.7039C319.845 33.4319 320 34.2121 320 35C320 35.5523 319.552 36 319 36C318.448 36 318 35.5523 318 35C318 34.4747 317.897 33.9546 317.696 33.4693C317.495 32.984 317.2 32.543 316.828 32.1716C316.457 31.8001 316.016 31.5055 315.531 31.3045C315.045 31.1035 314.525 31 314 31H309.5C308.439 31 307.422 31.4214 306.672 32.1716C305.921 32.9217 305.5 33.9391 305.5 35C305.5 36.0609 305.921 37.0783 306.672 37.8284C307.422 38.5786 308.439 39 309.5 39H315C316.591 39 318.117 39.6321 319.243 40.7574C320.368 41.8826 321 43.4087 321 45C321 46.5913 320.368 48.1174 319.243 49.2426C318.117 50.3679 316.591 51 315 51H309C307.409 51 305.883 50.3679 304.757 49.2426C303.632 48.1174 303 46.5913 303 45C303 44.4477 303.448 44 304 44C304.552 44 305 44.4477 305 45C305 46.0609 305.421 47.0783 306.172 47.8284C306.922 48.5786 307.939 49 309 49H315C316.061 49 317.078 48.5786 317.828 47.8284C318.579 47.0783 319 46.0609 319 45C319 43.9391 318.579 42.9217 317.828 42.1716C317.078 41.4214 316.061 41 315 41H309.5C307.909 41 306.383 40.3679 305.257 39.2426C304.132 38.1174 303.5 36.5913 303.5 35C303.5 33.4087 304.132 31.8826 305.257 30.7574Z" fill="white"/>
<path d="M34.0312 78.25H42.5156C44.2552 78.25 45.75 78.5104 47 79.0312C48.2604 79.5521 49.2292 80.3229 49.9062 81.3438C50.5833 82.3646 50.9219 83.6198 50.9219 85.1094C50.9219 86.3281 50.7135 87.375 50.2969 88.25C49.8906 89.1146 49.3125 89.8385 48.5625 90.4219C47.8229 90.9948 46.9531 91.4531 45.9531 91.7969L44.4688 92.5781H37.0938L37.0625 88.9219H42.5469C43.3698 88.9219 44.0521 88.776 44.5938 88.4844C45.1354 88.1927 45.5417 87.7865 45.8125 87.2656C46.0938 86.7448 46.2344 86.1406 46.2344 85.4531C46.2344 84.724 46.099 84.0938 45.8281 83.5625C45.5573 83.0312 45.1458 82.625 44.5938 82.3438C44.0417 82.0625 43.349 81.9219 42.5156 81.9219H38.7188V101H34.0312V78.25ZM46.75 101L41.5625 90.8594L46.5156 90.8281L51.7656 100.781V101H46.75ZM63.4531 74.6406V79.25H61.0156V74.6406H63.4531ZM63.1562 100.156V104.359H60.7188V100.156H63.1562ZM64.875 95.0312C64.875 94.4375 64.7656 93.9323 64.5469 93.5156C64.3385 93.099 63.9948 92.7292 63.5156 92.4062C63.0469 92.0833 62.4115 91.7708 61.6094 91.4688C60.2552 90.9479 59.0625 90.3958 58.0312 89.8125C57.0104 89.2188 56.2135 88.4844 55.6406 87.6094C55.0677 86.724 54.7812 85.6042 54.7812 84.25C54.7812 82.9583 55.0885 81.8385 55.7031 80.8906C56.3177 79.9427 57.1667 79.2135 58.25 78.7031C59.3438 78.1823 60.6146 77.9219 62.0625 77.9219C63.1667 77.9219 64.1667 78.0885 65.0625 78.4219C65.9583 78.7448 66.7292 79.224 67.375 79.8594C68.0208 80.4844 68.5156 81.25 68.8594 82.1562C69.2031 83.0625 69.375 84.099 69.375 85.2656H64.8906C64.8906 84.6406 64.8229 84.0885 64.6875 83.6094C64.5521 83.1302 64.3542 82.7292 64.0938 82.4062C63.8438 82.0833 63.5417 81.8438 63.1875 81.6875C62.8333 81.5208 62.4427 81.4375 62.0156 81.4375C61.3802 81.4375 60.8594 81.5625 60.4531 81.8125C60.0469 82.0625 59.75 82.401 59.5625 82.8281C59.3854 83.2448 59.2969 83.724 59.2969 84.2656C59.2969 84.7969 59.3906 85.2604 59.5781 85.6562C59.776 86.0521 60.1146 86.4167 60.5938 86.75C61.0729 87.0729 61.7292 87.4062 62.5625 87.75C63.9167 88.2708 65.1042 88.8333 66.125 89.4375C67.1458 90.0417 67.9427 90.7812 68.5156 91.6562C69.0885 92.5312 69.375 93.6458 69.375 95C69.375 96.3438 69.0625 97.4896 68.4375 98.4375C67.8125 99.375 66.9375 100.094 65.8125 100.594C64.6875 101.083 63.3854 101.328 61.9062 101.328C60.9479 101.328 59.9948 101.203 59.0469 100.953C58.099 100.693 57.2396 100.276 56.4688 99.7031C55.6979 99.1302 55.0833 98.3698 54.625 97.4219C54.1667 96.4635 53.9375 95.2865 53.9375 93.8906H58.4375C58.4375 94.651 58.5365 95.2865 58.7344 95.7969C58.9323 96.2969 59.1927 96.6979 59.5156 97C59.849 97.2917 60.224 97.5 60.6406 97.625C61.0573 97.75 61.4792 97.8125 61.9062 97.8125C62.5729 97.8125 63.1198 97.6927 63.5469 97.4531C63.9844 97.2135 64.3125 96.8854 64.5312 96.4688C64.7604 96.0417 64.875 95.5625 64.875 95.0312ZM91.375 78.2031V101H86.875V83.3906L81.4688 85.1094V81.5625L90.8906 78.2031H91.375ZM110.391 78.0156H111.047V81.6094H110.781C109.594 81.6094 108.536 81.7865 107.609 82.1406C106.682 82.4948 105.896 83 105.25 83.6562C104.615 84.3021 104.125 85.0833 103.781 86C103.448 86.9167 103.281 87.9427 103.281 89.0781V92.8594C103.281 93.6719 103.359 94.3906 103.516 95.0156C103.682 95.6302 103.917 96.1458 104.219 96.5625C104.531 96.9688 104.896 97.276 105.312 97.4844C105.729 97.6823 106.198 97.7812 106.719 97.7812C107.208 97.7812 107.651 97.6771 108.047 97.4688C108.453 97.2604 108.797 96.9688 109.078 96.5938C109.37 96.2083 109.589 95.7604 109.734 95.25C109.891 94.7292 109.969 94.1615 109.969 93.5469C109.969 92.9323 109.891 92.3646 109.734 91.8438C109.589 91.3229 109.37 90.875 109.078 90.5C108.786 90.1146 108.432 89.8177 108.016 89.6094C107.599 89.401 107.13 89.2969 106.609 89.2969C105.901 89.2969 105.276 89.4635 104.734 89.7969C104.203 90.1198 103.786 90.5365 103.484 91.0469C103.182 91.5573 103.021 92.0938 103 92.6562L101.641 91.7812C101.672 90.9792 101.839 90.2188 102.141 89.5C102.453 88.7812 102.88 88.1458 103.422 87.5938C103.974 87.0312 104.635 86.5938 105.406 86.2812C106.177 85.9583 107.047 85.7969 108.016 85.7969C109.078 85.7969 110.01 86 110.812 86.4062C111.625 86.8125 112.302 87.3698 112.844 88.0781C113.385 88.7865 113.792 89.6042 114.062 90.5312C114.333 91.4583 114.469 92.4479 114.469 93.5C114.469 94.6042 114.286 95.6302 113.922 96.5781C113.568 97.526 113.052 98.3542 112.375 99.0625C111.708 99.7708 110.906 100.323 109.969 100.719C109.031 101.115 107.979 101.312 106.812 101.312C105.604 101.312 104.505 101.094 103.516 100.656C102.536 100.208 101.693 99.5833 100.984 98.7812C100.276 97.9792 99.7292 97.026 99.3438 95.9219C98.9688 94.8177 98.7812 93.6094 98.7812 92.2969V90.5469C98.7812 88.7135 99.0469 87.0365 99.5781 85.5156C100.12 83.9844 100.896 82.6615 101.906 81.5469C102.917 80.4219 104.135 79.5521 105.562 78.9375C106.99 78.3229 108.599 78.0156 110.391 78.0156ZM117.562 98.8281C117.562 98.1615 117.792 97.6042 118.25 97.1562C118.719 96.7083 119.339 96.4844 120.109 96.4844C120.88 96.4844 121.495 96.7083 121.953 97.1562C122.422 97.6042 122.656 98.1615 122.656 98.8281C122.656 99.4948 122.422 100.052 121.953 100.5C121.495 100.948 120.88 101.172 120.109 101.172C119.339 101.172 118.719 100.948 118.25 100.5C117.792 100.052 117.562 99.4948 117.562 98.8281ZM137.406 78.2031V101H132.906V83.3906L127.5 85.1094V81.5625L136.922 78.2031H137.406ZM160.75 92.5V96.0312H144.359L144.141 93.2969L153.625 78.25H157.203L153.328 84.7344L148.609 92.5H160.75ZM158.172 78.25V101H153.672V78.25H158.172ZM174.156 78.2031V101H169.656V83.3906L164.25 85.1094V81.5625L173.672 78.2031H174.156ZM186.016 97.2031L186 100.219C186 101.375 185.708 102.542 185.125 103.719C184.552 104.896 183.823 105.859 182.938 106.609L180.594 105.406C180.854 104.927 181.109 104.448 181.359 103.969C181.609 103.49 181.818 102.964 181.984 102.391C182.151 101.818 182.234 101.167 182.234 100.438V97.2031H186.016ZM204.75 87.625V91.5625C204.75 93.2708 204.568 94.7448 204.203 95.9844C203.839 97.2135 203.312 98.224 202.625 99.0156C201.948 99.7969 201.141 100.375 200.203 100.75C199.266 101.125 198.224 101.312 197.078 101.312C196.161 101.312 195.307 101.198 194.516 100.969C193.724 100.729 193.01 100.359 192.375 99.8594C191.75 99.3594 191.208 98.7292 190.75 97.9688C190.302 97.1979 189.958 96.2812 189.719 95.2188C189.479 94.1562 189.359 92.9375 189.359 91.5625V87.625C189.359 85.9167 189.542 84.4531 189.906 83.2344C190.281 82.0052 190.807 81 191.484 80.2188C192.172 79.4375 192.984 78.8646 193.922 78.5C194.859 78.125 195.901 77.9375 197.047 77.9375C197.964 77.9375 198.812 78.0573 199.594 78.2969C200.385 78.526 201.099 78.8854 201.734 79.375C202.37 79.8646 202.911 80.4948 203.359 81.2656C203.807 82.026 204.151 82.9375 204.391 84C204.63 85.0521 204.75 86.2604 204.75 87.625ZM200.234 92.1562V87.0156C200.234 86.1927 200.188 85.474 200.094 84.8594C200.01 84.2448 199.88 83.724 199.703 83.2969C199.526 82.8594 199.307 82.5052 199.047 82.2344C198.786 81.9635 198.49 81.7656 198.156 81.6406C197.823 81.5156 197.453 81.4531 197.047 81.4531C196.536 81.4531 196.083 81.5521 195.688 81.75C195.302 81.9479 194.974 82.2656 194.703 82.7031C194.432 83.1302 194.224 83.7031 194.078 84.4219C193.943 85.1302 193.875 85.9948 193.875 87.0156V92.1562C193.875 92.9792 193.917 93.7031 194 94.3281C194.094 94.9531 194.229 95.4896 194.406 95.9375C194.594 96.375 194.812 96.7344 195.062 97.0156C195.323 97.2865 195.62 97.4844 195.953 97.6094C196.297 97.7344 196.672 97.7969 197.078 97.7969C197.578 97.7969 198.021 97.6979 198.406 97.5C198.802 97.2917 199.135 96.9688 199.406 96.5312C199.688 96.0833 199.896 95.5 200.031 94.7812C200.167 94.0625 200.234 93.1875 200.234 92.1562ZM223.125 87.625V91.5625C223.125 93.2708 222.943 94.7448 222.578 95.9844C222.214 97.2135 221.688 98.224 221 99.0156C220.323 99.7969 219.516 100.375 218.578 100.75C217.641 101.125 216.599 101.312 215.453 101.312C214.536 101.312 213.682 101.198 212.891 100.969C212.099 100.729 211.385 100.359 210.75 99.8594C210.125 99.3594 209.583 98.7292 209.125 97.9688C208.677 97.1979 208.333 96.2812 208.094 95.2188C207.854 94.1562 207.734 92.9375 207.734 91.5625V87.625C207.734 85.9167 207.917 84.4531 208.281 83.2344C208.656 82.0052 209.182 81 209.859 80.2188C210.547 79.4375 211.359 78.8646 212.297 78.5C213.234 78.125 214.276 77.9375 215.422 77.9375C216.339 77.9375 217.188 78.0573 217.969 78.2969C218.76 78.526 219.474 78.8854 220.109 79.375C220.745 79.8646 221.286 80.4948 221.734 81.2656C222.182 82.026 222.526 82.9375 222.766 84C223.005 85.0521 223.125 86.2604 223.125 87.625ZM218.609 92.1562V87.0156C218.609 86.1927 218.562 85.474 218.469 84.8594C218.385 84.2448 218.255 83.724 218.078 83.2969C217.901 82.8594 217.682 82.5052 217.422 82.2344C217.161 81.9635 216.865 81.7656 216.531 81.6406C216.198 81.5156 215.828 81.4531 215.422 81.4531C214.911 81.4531 214.458 81.5521 214.062 81.75C213.677 81.9479 213.349 82.2656 213.078 82.7031C212.807 83.1302 212.599 83.7031 212.453 84.4219C212.318 85.1302 212.25 85.9948 212.25 87.0156V92.1562C212.25 92.9792 212.292 93.7031 212.375 94.3281C212.469 94.9531 212.604 95.4896 212.781 95.9375C212.969 96.375 213.188 96.7344 213.438 97.0156C213.698 97.2865 213.995 97.4844 214.328 97.6094C214.672 97.7344 215.047 97.7969 215.453 97.7969C215.953 97.7969 216.396 97.6979 216.781 97.5C217.177 97.2917 217.51 96.9688 217.781 96.5312C218.062 96.0833 218.271 95.5 218.406 94.7812C218.542 94.0625 218.609 93.1875 218.609 92.1562Z" fill="#E1E1E6"/>
</svg>
